<svg width="32" height="32" xmlns="http://www.w3.org/2000/svg" preserveAspectRatio="xMidYMid meet">

 <g>
  <title>Layer 1</title>
  <g id="svg_1" transform="matrix(0.1 0 0 -0.1 0 32)">
   <path id="svg_2" fill-rule=" nonzero" fill=" rgb(56,55,58)" stroke-width="1" stroke=" rgb(240,237,237)" d="m84,290c-51,-21 -83,-96 -69,-167c8,-46 63,-103 99,-103c23,0 26,4 26,35c0,27 -4,35 -18,35c-28,0 -52,32 -52,68c0,34 29,72 55,72c10,0 15,11 15,35c0,37 -12,43 -56,25z"/>
  </g>
  <g id="svg_3" transform="matrix(0.1 0 0 -0.1 0 32)">
   <path id="svg_4" fill-rule=" nonzero" fill=" rgb(17,135,93)" stroke-width="1" stroke=" rgb(240,237,237)" d="m160.00031,266c0,-25 4,-36 15,-36c24,0 55,-38 55,-68c0,-35 -26,-72 -51,-72c-15,0 -19,-7 -19,-35c0,-40 13,-44 59,-20c35,18 61,70 61,125c0,67 -37,122 -92,135c-27,7 -28,5 -28,-29z"/>
  </g>
 </g>
</svg>